<?xml version="1.0" standalone="no"?>

<svg viewBox="0 0 917 229" style="background-color:#ffffff00" version="1.1" xmlns="http://www.w3.org/2000/svg" xmlns:xlink="http://www.w3.org/1999/xlink" xml:space="preserve" x="0px" y="0px" width="100%" height="100%">
	<g id="Layer%202">
		<text visibility="hidden" x="236.5" y="224.7" width="691.8" fill="#000000" style="font-family: ; font-size: 110px; color: #000000; text-align: left; "><tspan><![CDATA[dabby.js]]></tspan></text>
		<g>
			<path d="M 337.1 27.1 L 328.2 27.1 L 328.2 97.4 C 326.4 94.2 324.2 91.1 321.7 88.2 C 319.1 85.3 316.3 82.8 313.2 80.6 C 310 78.5 306.7 76.8 303.2 75.6 C 299.7 74.4 296.1 73.8 292.5 73.8 C 286.4 73.8 280.8 75.1 275.5 77.7 C 270.2 80.4 265.6 84 261.6 88.5 C 257.7 93 254.5 98.3 252.2 104.4 C 250 110.6 248.8 117.1 248.8 124.1 C 248.8 131.1 250 137.6 252.2 143.7 C 254.5 149.8 257.7 155.2 261.6 159.7 C 265.6 164.2 270.2 167.8 275.5 170.4 C 280.8 173.1 286.4 174.4 292.5 174.4 C 296.1 174.4 299.7 173.8 303.2 172.6 C 306.7 171.4 310 169.7 313.2 167.5 C 316.3 165.4 319.1 162.9 321.7 160.1 C 324.2 157.2 326.4 154.2 328.2 151 L 328.2 172.6 L 337.1 172.6 L 337.1 27.1 L 337.1 27.1 ZM 325.5 140.1 C 323.6 145.1 321.1 149.6 317.9 153.3 C 314.7 157.1 311 160.1 306.7 162.3 C 302.4 164.5 297.8 165.6 292.9 165.6 C 288.1 165.6 283.5 164.5 279.2 162.3 C 274.9 160.1 271.1 157.1 268 153.3 C 264.8 149.6 262.3 145.1 260.4 140.1 C 258.6 135.1 257.7 129.8 257.7 124.1 C 257.7 118.4 258.6 113.1 260.4 108 C 262.3 103 264.8 98.6 268 94.8 C 271.1 91.1 274.9 88.1 279.2 85.9 C 283.5 83.7 288.1 82.6 292.9 82.6 C 297.8 82.6 302.4 83.7 306.7 85.9 C 311 88.1 314.7 91.1 317.9 94.8 C 321.1 98.6 323.6 103 325.5 108 C 327.3 113.1 328.2 118.4 328.2 124.1 C 328.2 129.8 327.3 135.1 325.5 140.1 L 325.5 140.1 Z" fill="#000000"/>
			<path d="M 372.5 90 C 375.3 88.2 378.7 86.5 382.7 84.9 C 386.8 83.4 391.6 82.6 397.3 82.6 C 401.4 82.6 405.3 83.1 408.9 84 C 412.5 84.9 415.6 86.4 418.3 88.3 C 421 90.4 423.1 92.9 424.7 96 C 426.3 99.2 427.1 102.9 427.1 107.1 L 427.1 112.6 L 400.4 112.6 C 394.6 112.6 389.1 113.4 384.1 115.1 C 379 116.7 374.5 118.9 370.6 121.7 C 366.7 124.5 363.7 127.8 361.5 131.5 C 359.3 135.2 358.2 139.2 358.2 143.5 C 358.2 147.8 359.2 151.8 361.2 155.5 C 363.2 159.2 366 162.5 369.4 165.3 C 372.9 168.1 377 170.3 381.6 172 C 386.3 173.6 391.2 174.4 396.5 174.4 C 399.6 174.4 402.7 174 405.7 173.2 C 408.7 172.5 411.6 171.4 414.2 170.1 C 416.8 168.9 419.2 167.4 421.5 165.6 C 423.7 163.9 425.5 162.1 427.1 160.3 L 427.1 172.6 L 435.9 172.6 L 435.9 107.5 C 435.9 101.9 434.9 97 432.9 92.8 C 430.9 88.5 428.2 85 424.7 82.2 C 421.3 79.4 417.2 77.3 412.6 75.9 C 408 74.5 403.1 73.8 397.8 73.8 C 391.2 73.8 385.2 74.9 380 77.1 C 374.8 79.3 370.5 81.8 367.1 84.5 L 372.5 90 L 372.5 90 ZM 427.1 121.4 L 427.1 144.4 C 426.8 147.4 425.9 150.2 424.3 152.8 C 422.7 155.3 420.6 157.5 417.9 159.4 C 415.1 161.3 412 162.8 408.5 163.9 C 404.9 165 401.1 165.6 397.1 165.6 C 392.9 165.6 389 165 385.4 163.8 C 381.8 162.6 378.6 161 375.9 159 C 373.2 157 371 154.7 369.4 152 C 367.8 149.3 367.1 146.5 367.1 143.5 C 367.1 140.5 368 137.7 369.7 135 C 371.5 132.3 373.9 130 376.9 128 C 380 126 383.5 124.4 387.7 123.2 C 391.8 122 396.2 121.4 400.9 121.4 L 427.1 121.4 L 427.1 121.4 Z" fill="#000000"/>
			<path d="M 473 27.1 L 464.1 27.1 L 464.1 172.6 L 473 172.6 L 473 151 C 474.6 154.2 476.7 157.2 479.2 160.1 C 481.6 162.9 484.4 165.4 487.5 167.5 C 490.6 169.7 493.8 171.4 497.3 172.6 C 500.7 173.8 504.3 174.4 508 174.4 C 513.8 174.4 519.3 173.1 524.5 170.4 C 529.7 167.8 534.2 164.2 538.1 159.7 C 542 155.2 545 149.8 547.3 143.7 C 549.5 137.6 550.6 131.1 550.6 124.1 C 550.6 117.1 549.5 110.6 547.3 104.4 C 545 98.3 542 93 538.1 88.5 C 534.2 84 529.7 80.4 524.5 77.7 C 519.3 75.1 513.8 73.8 508 73.8 C 504.3 73.8 500.7 74.4 497.3 75.6 C 493.8 76.8 490.6 78.5 487.5 80.6 C 484.4 82.8 481.6 85.3 479.2 88.2 C 476.7 91.1 474.6 94.2 473 97.4 L 473 27.1 L 473 27.1 ZM 475.7 108 C 477.5 103 479.9 98.6 483 94.8 C 486.1 91.1 489.8 88.1 494 85.9 C 498.2 83.7 502.7 82.6 507.4 82.6 C 512.1 82.6 516.5 83.7 520.8 85.9 C 525 88.1 528.6 91.1 531.7 94.8 C 534.8 98.6 537.3 103 539.1 108 C 540.9 113.1 541.8 118.4 541.8 124.1 C 541.8 129.8 540.9 135.1 539.1 140.1 C 537.3 145.1 534.8 149.6 531.7 153.3 C 528.6 157.1 525 160.1 520.8 162.3 C 516.5 164.5 512.1 165.6 507.4 165.6 C 502.7 165.6 498.2 164.5 494 162.3 C 489.8 160.1 486.1 157.1 483 153.3 C 479.9 149.6 477.5 145.1 475.7 140.1 C 473.8 135.1 473 129.8 473 124.1 C 473 118.4 473.8 113.1 475.7 108 L 475.7 108 Z" fill="#000000"/>
			<path d="M 582.4 27.1 L 573.6 27.1 L 573.6 172.6 L 582.4 172.6 L 582.4 151 C 584 154.2 586.1 157.2 588.6 160.1 C 591.1 162.9 593.9 165.4 596.9 167.5 C 600 169.7 603.2 171.4 606.7 172.6 C 610.1 173.8 613.7 174.4 617.4 174.4 C 623.2 174.4 628.7 173.1 633.9 170.4 C 639.1 167.8 643.6 164.2 647.5 159.7 C 651.4 155.2 654.4 149.8 656.7 143.7 C 658.9 137.6 660 131.1 660 124.1 C 660 117.1 658.9 110.6 656.7 104.4 C 654.4 98.3 651.4 93 647.5 88.5 C 643.6 84 639.1 80.4 633.9 77.7 C 628.7 75.1 623.2 73.8 617.4 73.8 C 613.7 73.8 610.1 74.4 606.7 75.6 C 603.2 76.8 600 78.5 596.9 80.6 C 593.9 82.8 591.1 85.3 588.6 88.2 C 586.1 91.1 584 94.2 582.4 97.4 L 582.4 27.1 L 582.4 27.1 ZM 585.1 108 C 586.9 103 589.3 98.6 592.4 94.8 C 595.5 91.1 599.2 88.1 603.4 85.9 C 607.6 83.7 612.1 82.6 616.8 82.6 C 621.5 82.6 626 83.7 630.2 85.9 C 634.4 88.1 638.1 91.1 641.1 94.8 C 644.2 98.6 646.7 103 648.5 108 C 650.3 113.1 651.2 118.4 651.2 124.1 C 651.2 129.8 650.3 135.1 648.5 140.1 C 646.7 145.1 644.2 149.6 641.1 153.3 C 638.1 157.1 634.4 160.1 630.2 162.3 C 626 164.5 621.5 165.6 616.8 165.6 C 612.1 165.6 607.6 164.5 603.4 162.3 C 599.2 160.1 595.5 157.1 592.4 153.3 C 589.3 149.6 586.9 145.1 585.1 140.1 C 583.3 135.1 582.4 129.8 582.4 124.1 C 582.4 118.4 583.3 113.1 585.1 108 L 585.1 108 Z" fill="#000000"/>
			<path d="M 759.5 74.3 L 751 74.3 L 714.4 161.3 L 678 74.3 L 669.4 74.3 L 710.2 171.4 L 700.7 194.1 C 699.6 196.7 698.3 198.6 696.6 200 C 694.9 201.4 693.2 202.4 691.5 203.1 C 689.6 203.8 687.5 204.3 685.3 204.4 L 685.3 213.2 C 688.5 212.9 691.6 212.1 694.5 210.8 C 696.9 209.6 699.4 207.9 701.9 205.6 C 704.4 203.4 706.5 200.3 708.2 196.4 L 759.5 74.3 L 759.5 74.3 Z" fill="#000000"/>
			<path d="M 769.5 172.6 L 778.3 172.6 L 778.3 158.5 L 769.5 158.5 L 769.5 172.6 L 769.5 172.6 Z" fill="#000000"/>
			<path d="M 785.2 215 C 789.2 215 793 214.1 796.5 212.3 C 800.1 210.6 803.2 208.3 805.9 205.6 C 808.7 202.9 810.9 199.7 812.7 196.2 C 814.5 192.6 815.3 188.8 815.3 184.8 L 815.3 75.1 L 806.5 75.1 L 806.5 184.8 C 806.5 187.8 806 190.6 804.9 193.2 C 803.8 195.7 802.2 198 800.3 200 C 798.4 201.9 796.1 203.4 793.5 204.5 C 790.9 205.6 788.2 206.2 785.2 206.2 L 785.2 215 L 785.2 215 ZM 806.5 54.3 L 815.3 54.3 L 815.3 34.9 L 806.5 34.9 L 806.5 54.3 L 806.5 54.3 Z" fill="#000000"/>
			<path d="M 836.5 145.4 C 836.5 149.6 837.6 153.5 839.8 157 C 842 160.5 845 163.5 848.7 166.1 C 852.4 168.7 856.8 170.7 861.7 172.2 C 866.6 173.6 871.8 174.4 877.1 174.4 C 882.4 174.4 887.6 173.7 892.5 172.5 C 897.4 171.2 901.8 169.4 905.5 167 C 909.2 164.7 912.2 161.8 914.4 158.3 C 916.6 154.9 917.7 151.1 917.7 146.9 C 917.7 142.7 916.7 139.1 914.9 136 C 913 133.1 910.3 130.5 906.8 128.4 C 903.4 126.3 899.2 124.5 894.3 123.1 C 889.4 121.8 884 120.5 878 119.3 C 873.6 118.6 869.6 117.7 866 116.8 C 862.4 116 859.3 114.8 856.8 113.5 C 854.3 112.2 852.3 110.5 850.9 108.5 C 849.5 106.5 848.9 104 848.9 101 C 848.9 97.9 849.7 95.2 851.4 92.9 C 853.1 90.6 855.3 88.7 858 87.2 C 860.6 85.6 863.6 84.5 867 83.7 C 870.3 83 873.7 82.6 877.1 82.6 C 880.5 82.6 883.9 83 887.3 83.8 C 890.6 84.5 893.6 85.7 896.2 87.3 C 898.9 88.8 901.1 90.8 902.8 93.1 C 904.5 95.4 905.3 98.1 905.3 101.2 L 914.2 101.2 C 914.2 97.1 913.2 93.4 911.1 90.2 C 909.1 86.9 906.4 84.1 902.9 81.6 C 899.4 79.2 895.5 77.3 891 75.9 C 886.6 74.5 881.9 73.8 877.1 73.8 C 872.3 73.8 867.6 74.4 863.2 75.6 C 858.7 76.8 854.8 78.5 851.3 80.7 C 847.8 83 845.1 85.7 843.1 88.9 C 841 92.1 840.1 95.7 840.1 99.8 C 840.1 103.9 840.9 107.3 842.6 110.1 C 844.3 112.9 846.7 115.3 849.8 117.2 C 853 119.1 856.8 120.7 861.4 122.1 C 865.9 123.4 871.1 124.6 877 125.8 C 881.6 126.7 885.8 127.6 889.7 128.7 C 893.6 129.7 897 130.9 899.8 132.3 C 902.6 133.7 904.8 135.5 906.4 137.6 C 908.1 139.8 908.9 142.5 908.9 145.7 C 908.9 149.1 907.9 152.1 906 154.6 C 904 157.1 901.5 159.1 898.5 160.7 C 895.4 162.3 892 163.5 888.2 164.3 C 884.4 165.1 880.8 165.6 877.1 165.6 C 873.5 165.6 869.7 165.1 866 164.3 C 862.2 163.5 858.8 162.2 855.8 160.6 C 852.7 159 850.2 156.9 848.3 154.4 C 846.3 151.9 845.3 148.9 845.3 145.4 L 836.5 145.4 L 836.5 145.4 Z" fill="#000000"/>
		</g>
		<path opacity="0.3" d="M 98.8 227.7 L 1.8 58.2 M 98.8 227.7 L 195.9 58.2 M 97.9 2.6 L 196.8 172.1 M 2.6 172.1 L 99.7 2.6 M 98.8 227.7 L 1 171.2 L 1 58.2 L 98.8 1.7 L 196.6 58.2 L 196.6 171.2 L 98.8 227.7 Z" stroke="#ffffff" stroke-width="2" fill="#660066"/>
		<path opacity="0.3" d="M 98.8 1.7 L 3.5 171.2 L 98.8 227.7 L 197.6 171.2 L 98.8 1.7 Z" stroke="#ffffff" stroke-width="2" fill="#003ea4"/>
		<path opacity="0.3" d="M 98.8 227.7 L 3.5 58.2 L 98.8 1.7 L 197.6 58.2 L 98.8 227.7 Z" stroke="#ffffff" stroke-width="2" fill="#003ea4"/>
	</g>
</svg>